<svg xmlns="http://www.w3.org/2000/svg" viewBox="0 0 472 360" width="472" height="360">
	<style>
		tspan { white-space:pre }
		.shp0 { fill: #000000 } 
	</style>
	<path id="Path 0" fill-rule="evenodd" class="shp0" d="M163.5 0.47C182.2 0.71 203.57 1.39 211 1.98C218.42 2.57 231.25 3.73 239.5 4.55C247.75 5.37 262.6 7.19 272.5 8.6C282.4 10 297.25 12.48 305.5 14.12C313.75 15.75 327.7 18.9 336.5 21.12C345.3 23.34 359.02 27.31 367 29.94C374.97 32.57 386.67 37.04 393 39.88C399.32 42.71 409.15 47.61 414.84 50.76C420.53 53.92 429.76 60.14 435.34 64.6C440.93 69.05 448.34 76.03 451.82 80.1C455.3 84.17 459.78 90.42 461.78 94C463.79 97.57 466.75 104.32 468.37 109C470.88 116.23 471.39 119.45 471.78 130.5C472.13 140.37 471.82 145.55 470.51 152C469.55 156.67 467.65 163.65 466.28 167.5C464.91 171.35 462.15 177.65 460.15 181.5C458.15 185.35 452.35 193.67 447.26 200C442.17 206.32 438.01 212.29 438 213.25C438 214.21 438.67 216.35 439.5 218C440.32 219.65 441.9 221.45 443 222C444.1 222.55 446.12 223 447.5 223C448.87 223 451.44 221.99 453.2 220.75C454.96 219.51 459.91 214.34 472 200L472 206.25C471.99 209.69 471.37 216.32 470.61 221C469.85 225.67 467.72 233.56 465.86 238.53C464.01 243.5 460.25 251.34 457.5 255.97C454.39 261.21 449.11 267.85 443.5 273.58C438.55 278.64 431.12 284.94 427 287.58C422.87 290.22 416.57 293.7 413 295.31C409.42 296.93 402.22 299.32 397 300.64C390.46 302.29 382.37 303.34 371 304.01C361.92 304.54 351.35 305.24 347.5 305.56C343.65 305.88 336.34 306.78 331.25 307.57C326.16 308.36 317.39 310.09 311.75 311.42C306.11 312.75 296.32 315.5 290 317.54C283.67 319.58 264.77 326.77 248 333.51C231.22 340.25 213.22 347.2 208 348.96C202.77 350.72 193.32 353.48 187 355.1C180.67 356.72 170.55 358.54 164.5 359.14C158.33 359.75 146.69 359.97 138 359.64C127.59 359.25 119.71 358.38 114 357C109.32 355.88 102.57 354 99 352.84C95.42 351.68 88.45 348.85 83.5 346.57C78.55 344.28 70.67 339.9 66 336.84C61.32 333.77 54.22 328.39 50.21 324.88C46.2 321.37 39.73 314.9 35.82 310.5C31.91 306.1 26.21 298.67 23.16 294C20.1 289.32 15.92 281.9 13.86 277.5C11.81 273.1 8.79 265.45 7.14 260.5C5.49 255.55 3.47 248.12 2.64 244C1.82 239.87 0.86 233.8 0.52 230.5C-0.1 224.62 -0.08 224.54 1.69 226.63C2.69 227.8 6.28 232.75 9.68 237.63C13.08 242.51 18.82 249.99 22.43 254.25C26.04 258.51 32.49 264.97 36.75 268.59C41.01 272.22 48.55 277.9 53.5 281.21C58.45 284.53 66.77 289.39 72 292.01C77.22 294.64 86 298.36 91.5 300.28C97 302.21 106.22 304.84 112 306.14C121.53 308.28 124.75 308.49 147 308.44C169.72 308.38 172.33 308.18 183 305.75C189.32 304.31 199.67 301.56 206 299.64C212.32 297.73 232.57 290.1 251 282.7C269.42 275.29 289.67 267.62 296 265.65C302.32 263.67 312.22 260.96 318 259.62C323.77 258.27 331.65 256.71 335.5 256.13C339.35 255.56 350.15 254.63 359.5 254.06C368.85 253.49 378.75 252.79 381.5 252.51C384.93 252.16 387.16 251.29 388.61 249.75C389.77 248.51 390.97 246.37 391.28 245C391.59 243.62 391.44 241.37 390.96 240C390.48 238.62 388.94 236.71 387.54 235.75C385.65 234.45 383.01 234 377.25 234.02C372.99 234.02 362.75 234.48 354.5 235.04C346.25 235.59 335.45 236.74 330.5 237.59C325.55 238.43 316.32 240.43 310 242.03C303.67 243.63 292.65 246.92 285.5 249.35C278.35 251.78 259.45 258.94 243.5 265.27C227.55 271.6 209.77 278.38 204 280.32C198.22 282.27 188.1 285.1 181.5 286.6C170.41 289.14 167.79 289.35 147 289.42C131.87 289.48 122.53 289.07 118.5 288.19C115.2 287.46 108 285.51 102.5 283.85C97 282.19 88 278.67 82.5 276.03C77 273.39 68.22 268.39 63 264.91C57.18 261.04 49.22 254.31 42.46 247.54C35.69 240.78 28.96 232.82 25.09 227C21.61 221.77 16.61 213 13.97 207.5C11.33 202 7.81 193 6.15 187.5C4.49 182 2.54 174.8 1.83 171.5C1 167.68 0.53 158.07 0.53 145C0.53 131.93 1 122.32 1.83 118.5C2.54 115.2 4.5 108 6.17 102.5C7.85 97 11.1 88.45 13.41 83.5C15.72 78.55 19.78 71.12 22.43 67C25.08 62.87 30.46 55.71 34.37 51.08C38.29 46.46 45.1 39.53 49.5 35.69C53.9 31.86 60.87 26.49 65 23.76C69.12 21.04 77 16.65 82.5 14.02C88 11.39 96.32 7.99 101 6.46C105.67 4.93 114 2.86 119.5 1.85C128.29 0.24 133.61 0.07 163.5 0.47ZM107.5 26.62C103.1 28.07 95.9 30.97 91.5 33.07C87.1 35.16 80.12 39.09 76 41.81C71.87 44.52 64.73 50.29 60.11 54.62C55.5 58.95 48.87 66.32 45.37 71C41.87 75.67 36.79 84 34.08 89.5C31.37 95 27.98 103.1 26.55 107.5C25.12 111.9 23.28 119.32 22.47 124C21.65 128.67 20.98 138.12 20.98 145C20.98 151.88 21.64 161.32 22.45 166C23.26 170.67 25.09 178.1 26.52 182.5C27.94 186.9 31.34 195 34.06 200.5C36.78 206 41.87 214.32 45.37 219C48.87 223.67 55.5 231.05 60.11 235.38C64.73 239.71 71.87 245.48 76 248.19C80.12 250.91 87.1 254.86 91.5 256.98C95.9 259.1 102.87 261.97 107 263.37C111.12 264.76 118.77 266.65 124 267.57C131.48 268.88 137.22 269.12 151 268.69C165.97 268.22 170.24 267.71 180.5 265.14C187.1 263.48 197.22 260.48 203 258.46C208.77 256.44 226.1 249.72 241.5 243.53C256.9 237.34 275.35 230.37 282.5 228.05C289.65 225.72 300.9 222.53 307.5 220.95C314.1 219.37 324.22 217.4 330 216.58C335.77 215.75 348.6 214.59 358.5 214C368.4 213.41 379.87 212.44 384 211.85C388.12 211.26 394.65 209.65 398.5 208.27C402.35 206.89 408.65 203.95 412.5 201.73C416.78 199.27 422.8 194.36 428 189.1C433.43 183.6 438.02 177.78 440.69 173C443 168.87 446.15 161.9 447.68 157.5C450.26 150.12 450.48 148.33 450.48 134.5C450.49 119.74 450.43 119.38 447.21 112C445.41 107.87 441.59 101.37 438.72 97.55C435.85 93.72 429.9 87.51 425.5 83.73C421.1 79.96 413.22 74.33 408 71.23C402.77 68.12 393.32 63.24 387 60.38C380.67 57.52 370.1 53.32 363.5 51.05C356.9 48.77 344.97 45.15 337 43C329.02 40.85 315.75 37.7 307.5 36C299.25 34.31 286.99 32.04 280.25 30.96C273.51 29.88 266.54 29 264.75 28.99C262.96 28.99 260.49 29.66 259.25 30.49C258.01 31.32 256.32 33.35 255.5 35C254.17 37.67 254.17 38.33 255.5 41C256.32 42.65 258.01 44.68 259.25 45.51C260.49 46.34 269.37 48.37 279 50.01C288.62 51.65 303.7 54.57 312.5 56.49C321.3 58.42 334.57 61.83 342 64.07C349.42 66.32 359.77 69.75 365 71.7C370.22 73.65 378.77 77.24 384 79.68C389.22 82.12 397.77 86.96 403 90.43C408.22 93.91 415.44 99.85 419.03 103.63C422.66 107.45 426.86 113.16 428.48 116.5C430.92 121.52 431.46 124.06 431.81 132C432.1 138.81 431.74 143.34 430.53 148C429.6 151.57 427.44 157.42 425.72 161C423.74 165.14 420.04 170.16 415.55 174.84C411.67 178.87 406.47 183.47 404 185.07C401.52 186.66 396.24 189.1 392.25 190.48C386.11 192.62 381.49 193.23 362 194.5C349.35 195.32 334.39 196.69 328.75 197.54C323.11 198.39 313.55 200.2 307.5 201.56C301.45 202.92 290.42 205.86 283 208.09C275.57 210.32 253.75 218.36 234.5 225.96C215.25 233.56 195.22 241.14 190 242.81C184.77 244.48 175.32 246.83 169 248.05C159.09 249.95 155.36 250.18 142 249.71C131.06 249.32 124.3 248.57 119 247.14C114.87 246.03 107.9 243.62 103.5 241.79C99.1 239.95 91.67 235.92 87 232.83C82.32 229.74 74.95 223.68 70.62 219.36C66.29 215.04 60.35 207.9 57.43 203.5C54.51 199.1 50.75 192.46 49.06 188.75C47.38 185.04 44.79 178.06 43.32 173.25C40.8 165.03 40.63 163.31 40.63 145C40.63 126.69 40.8 124.97 43.32 116.75C44.79 111.94 47.26 105.19 48.81 101.75C50.35 98.31 53.73 92.24 56.31 88.25C58.89 84.26 64.26 77.56 68.25 73.36C72.24 69.15 78.42 63.48 82 60.76C85.57 58.04 93.45 53.4 99.5 50.45C105.55 47.49 113.87 44.1 118 42.9C124.76 40.94 128.7 40.67 157.72 40.11C184.42 39.6 190.19 39.24 191.45 38C192.29 37.17 193.35 35.15 193.81 33.5C194.27 31.85 194.39 29.43 194.08 28.11C193.76 26.8 192.23 24.78 190.68 23.61C187.97 21.59 186.66 21.49 158.68 21.29C136.44 21.14 127.83 21.43 122.5 22.54C118.65 23.33 111.9 25.17 107.5 26.62ZM208.45 29.06C207.04 31.78 206.41 34.24 206.83 35.41C207.2 36.46 208.74 38.37 210.25 39.66C211.8 40.98 214.3 42 216 42C217.65 42 220.14 41.21 221.54 40.25C222.94 39.29 224.52 37.26 225.04 35.75C225.74 33.75 225.59 32.04 224.5 29.5C223.5 27.17 221.83 25.5 219.5 24.5C217.57 23.67 215.89 23.04 215.75 23.1C215.61 23.15 214.43 23.52 213.12 23.91C211.7 24.34 209.82 26.41 208.45 29.06ZM126.06 69C123.1 70.92 118.46 74.97 115.75 78C113.04 81.02 109.78 85.75 108.5 88.5C107.22 91.25 105.69 96.31 105.09 99.75C104.22 104.76 104.3 107.44 105.53 113.25C106.38 117.24 108.51 123.16 110.28 126.4C112.05 129.65 115.77 134.37 118.55 136.9C121.33 139.43 126.28 142.93 129.55 144.69C132.82 146.44 138.2 148.58 141.5 149.44C144.8 150.3 150.65 151.01 154.5 151.01C158.35 151.01 164.09 150.33 167.25 149.51C170.41 148.68 175.59 146.7 178.75 145.12C181.91 143.53 186.75 140.23 189.5 137.78C192.25 135.33 195.91 131.12 197.63 128.41C199.36 125.71 201.56 121.02 202.52 118C203.82 113.92 204.17 110.17 203.88 103.46C203.55 95.53 203.07 93.56 200 87.49C198.07 83.68 194.24 78.3 191.48 75.53C188.72 72.76 183.32 68.86 179.48 66.86C175.64 64.86 170.14 62.72 167.25 62.11C164.36 61.5 158.06 61.01 153.25 61.03C146.88 61.04 142.72 61.66 137.98 63.28C134.39 64.5 129.03 67.07 126.06 69ZM414.07 229.25C413.24 231.37 413.34 232.69 414.5 235C415.32 236.65 417.24 238.63 418.75 239.4C420.42 240.25 422.64 240.55 424.4 240.15C426 239.79 428.41 238.15 429.77 236.5C431.73 234.1 432.1 232.8 431.62 230C431.28 228.07 430.22 225.7 429.26 224.72C428.29 223.74 425.7 222.68 423.5 222.38C420.17 221.91 419.13 222.21 417.32 224.16C416.12 225.45 414.65 227.74 414.07 229.25ZM156 80.32C163.41 80.55 166.44 81.1 169.75 82.81C172.09 84.01 175.61 86.46 177.58 88.25C179.55 90.04 182.02 93.3 183.06 95.5C184.3 98.1 184.98 101.69 184.99 105.75C185 109.87 184.36 113.28 183.13 115.75C182.11 117.81 179.74 121.02 177.88 122.88C176.02 124.75 172.25 127.42 169.5 128.82C165.22 131 163.13 131.38 155 131.43C146.39 131.49 144.94 131.22 139.5 128.51C136.2 126.87 132.02 123.94 130.21 122.01C128.4 120.08 126.22 116.7 125.37 114.5C124.36 111.89 123.94 108.21 124.16 103.92C124.44 98.56 125.06 96.54 127.5 93.03C129.15 90.66 132.52 87.36 135 85.69C137.47 84.02 141.07 82.06 143 81.34C145.24 80.5 149.91 80.13 156 80.32Z" />
</svg>